# xmcd CD database file
#
# Track frame offsets:
#	150
#	13918
#	24566
#	36929
#	51626
#	63027
#	73057
#	85170
#	104251
#	118197
#	136909
#	148902
#	165345
#	177468
#	194333
#	212059
#	224726
#	239065
#	251942
#	277075
#	288044
#	304515
#	316756
#	335724
#
# Disc length: 4672 seconds
#
# Revision: 1
# Processed by: cddbd v1.5.2PL0 Copyright (c) Steve Scherf et al.
# Submitted via: CDex 1.70beta2
#
DISCID=7f123e18
DTITLE=John Dankworth - The Best of Johnny Dankworth [EMI Gold] [CD1 of 2)
DYEAR=1900
DGENRE=Jazz
TTITLE0=S'wonderful
TTITLE1=African Waltz
TTITLE2=Perdido
TTITLE3=Somebody Loves Me
TTITLE4=Ain't Misbehavin'
TTITLE5=Indiana
TTITLE6=Crazy Rhythm
TTITLE7=Stompin' at the Savoy
TTITLE8=Feather Merchant
TTITLE9=Jersey Bounce
TTITLE10=Adios
TTITLE11=Don't Get Around Much Anymore
TTITLE12=I Know You're Mine
TTITLE13=Moonglow
TTITLE14=Jive at Five
TTITLE15=Applecake
TTITLE16=Moanin'
TTITLE17=All Clare
TTITLE18=Just A-Sittin' and A-Rockin'
TTITLE19=Honeysuckle Rose
TTITLE20=Idaho
TTITLE21=Limehouse Blues
TTITLE22=Stardust
TTITLE23=Experiements with Mice
EXTD=
EXTT0=
EXTT1=
EXTT2=
EXTT3=
EXTT4=
EXTT5=
EXTT6=
EXTT7=
EXTT8=
EXTT9=
EXTT10=
EXTT11=
EXTT12=
EXTT13=
EXTT14=
EXTT15=
EXTT16=
EXTT17=
EXTT18=
EXTT19=
EXTT20=
EXTT21=
EXTT22=
EXTT23=
PLAYORDER=
